<svg width="45" height="45" viewBox="0 0 45 45" fill="none" xmlns="http://www.w3.org/2000/svg">
<circle cx="22.5" cy="22.5" r="22.5" fill="#D2EFDF"/>
<path d="M33 16H26C24.4087 16 22.8826 16.6321 21.7574 17.7574C20.6321 18.8826 20 20.4087 20 22C20 23.5913 20.6321 25.1174 21.7574 26.2426C22.8826 27.3679 24.4087 28 26 28H33V30C33 30.2652 32.8946 30.5196 32.7071 30.7071C32.5196 30.8946 32.2652 31 32 31H14C13.7348 31 13.4804 30.8946 13.2929 30.7071C13.1054 30.5196 13 30.2652 13 30V14C13 13.7348 13.1054 13.4804 13.2929 13.2929C13.4804 13.1054 13.7348 13 14 13H32C32.2652 13 32.5196 13.1054 32.7071 13.2929C32.8946 13.4804 33 13.7348 33 14V16ZM26 18H34V26H26C24.9391 26 23.9217 25.5786 23.1716 24.8284C22.4214 24.0783 22 23.0609 22 22C22 20.9391 22.4214 19.9217 23.1716 19.1716C23.9217 18.4214 24.9391 18 26 18ZM26 21V23H29V21H26Z" fill="#0B5C30"/>
</svg>
