<svg width="80" height="80" viewBox="0 0 80 80" fill="none" xmlns="http://www.w3.org/2000/svg">
<path d="M39.9979 76.6667C34.9884 76.6662 30.0945 75.1609 25.9509 72.3457C21.8072 69.5305 18.6049 65.5355 16.759 60.8784C14.9132 56.2214 14.509 51.1173 15.5988 46.2278C16.6887 41.3383 19.2223 36.8889 22.8712 33.4567C27.3445 29.2467 38.3312 21.6667 36.6645 5C56.6645 18.3333 66.6645 31.6667 46.6645 51.6667C49.9979 51.6667 54.9979 51.6667 63.3312 43.4333C64.2312 46.01 64.9979 48.78 64.9979 51.6667C64.9979 58.2971 62.364 64.6559 57.6755 69.3443C52.9871 74.0327 46.6283 76.6667 39.9979 76.6667Z" fill="#D2EFDF"/>
</svg>
