<svg width="56" height="56" viewBox="0 0 56 56" fill="none" xmlns="http://www.w3.org/2000/svg">
<path d="M50.96 40.7251C53.123 36.833 54.2555 32.4528 54.25 28C54.25 13.503 42.497 1.75002 28 1.75002C23.5479 1.7445 19.1683 2.87669 15.2766 5.03914L13.3525 3.1159C12.4768 2.24185 11.2901 1.75096 10.0529 1.75096C8.81565 1.75096 7.62895 2.24185 6.75327 3.1159L3.11502 6.75239C2.24092 7.62823 1.75 8.81507 1.75 10.0525C1.75 11.2898 2.24092 12.4767 3.11502 13.3525L5.03914 15.2766C2.87669 19.1683 1.7445 23.5479 1.75002 28C1.75002 42.497 13.5013 54.25 28 54.25C32.4522 54.2557 36.832 53.1231 40.7234 50.96L42.6475 52.8841C43.5233 53.7582 44.7102 54.2492 45.9476 54.2492C47.185 54.2492 48.3718 53.7582 49.2476 52.8841L52.8841 49.2476C53.7582 48.3718 54.2492 47.185 54.2492 45.9476C54.2492 44.7102 53.7582 43.5233 52.8841 42.6475L50.96 40.7251ZM5.86427 10.6024C5.71883 10.4561 5.63718 10.2583 5.63718 10.052C5.63718 9.84576 5.71883 9.64789 5.86427 9.50164L9.50252 5.86339C9.6485 5.71779 9.84627 5.63602 10.0525 5.63602C10.2586 5.63602 10.4564 5.71779 10.6024 5.86339L11.963 7.22489C10.189 8.59684 8.59684 10.189 7.22489 11.963L5.86427 10.6024ZM28 48.5083C16.6749 48.5083 7.49264 39.3269 7.49264 28C7.49264 16.674 16.6749 7.49264 28 7.49264C39.3251 7.49264 48.5083 16.674 48.5083 28C48.5083 39.3269 39.3251 48.5083 28 48.5083ZM50.1366 46.4984L46.4966 50.1366C46.3507 50.282 46.1531 50.3636 45.9471 50.3636C45.7412 50.3636 45.5436 50.282 45.3976 50.1366L44.037 48.7743C45.8111 47.4031 47.4031 45.8111 48.7743 44.037L50.1366 45.3976C50.2821 45.5439 50.3637 45.7418 50.3637 45.948C50.3637 46.1543 50.2821 46.3521 50.1366 46.4984Z" fill="#0B5C30"/>
<path d="M36.3676 27.1548C38.801 32.2762 39.9359 33.9851 44.2908 30.4641C48.6421 26.9457 50.6599 18.4398 34.6439 9.93046C30.289 7.61696 23.3319 11.9998 24.1168 15.6923C24.9034 19.3866 33.9386 22.0352 36.3676 27.1548ZM44.3144 22.9093C47.2859 22.9093 42.4891 24.5377 39.6296 27.007C38.2436 28.204 38.9104 22.9093 44.3144 22.9093ZM40.3489 16.3547C43.3221 16.3547 38.5254 17.9805 35.6659 20.4515C34.2843 21.6467 34.9423 16.3547 40.3489 16.3547ZM33.9561 12.0847C36.9268 12.0847 32.1291 13.7131 29.2749 16.1788C27.8871 17.3758 28.5504 12.0847 33.9561 12.0847ZM37.1018 37.598C33.5501 40.1241 31.3714 43.1166 32.2245 44.2856C33.761 46.3978 33.761 46.3978 40.1888 41.8233C43.7351 39.3007 45.9191 36.3047 45.066 35.1375C43.5225 33.0261 43.5225 33.0261 37.1018 37.598ZM37.2269 36.4403C38.8474 36.5033 37.8368 35.0001 38.0231 33.1075C38.206 31.214 36.666 32.1843 33.7645 32.0155C30.8595 31.8466 31.7039 34.133 31.8211 35.96C31.9393 37.7861 33.0549 36.2855 37.2269 36.4403Z" fill="#0B5C30"/>
<path d="M26.5748 37.849C25.5843 37.2321 24.7469 36.3895 24.0014 35.4393C24.6734 35.7114 25.4898 35.868 26.335 36.029C26.7016 36.099 27.0683 36.169 27.4148 36.2478C27.7936 36.3353 28.0868 36.3755 28.3361 36.3755C29.6959 36.3755 29.8446 35.2223 29.9339 34.5319C30.0144 33.908 30.1255 33.0523 30.6855 31.9226C30.9795 31.3259 30.878 30.8753 30.7406 30.6014C30.3801 29.8769 29.5261 29.7141 28.4464 29.5094C27.8444 29.3948 27.1619 29.2653 26.4829 29.0308C25.9911 28.861 25.6035 28.7823 25.2614 28.7823C23.9506 28.7823 23.6243 29.8813 23.3854 30.6828C23.2471 31.1474 23.0905 31.6759 22.7816 32.2551C22.628 32.5386 22.5233 32.846 22.4719 33.1643C20.5014 29.8253 19.1163 26.1205 16.78 25.2604C16.7258 25.2411 16.6689 25.235 16.6146 25.2184C16.6531 25.1335 16.6776 25.0574 16.7214 24.969C17.0154 24.3731 16.9139 23.9216 16.7765 23.6478C16.5 23.093 15.9339 22.8681 15.1998 22.701C16.0529 21.8969 17.1816 20.7104 18.7829 19.0216C18.908 18.8904 19.0253 18.7591 19.1451 18.627C19.0533 18.8615 18.9439 19.1074 18.8065 19.3629C18.3323 20.2519 18.5939 20.7848 19.2151 21.1435C18.7785 21.2791 18.4644 21.4988 18.3218 21.8155C17.158 24.4003 17.158 24.4003 24.8703 27.9983C29.1254 29.9845 33.1005 30.4369 33.7454 29.0115C34.9109 26.4206 34.9109 26.4206 27.1969 22.8261C26.2348 22.3748 25.2435 21.9883 24.2298 21.6694C24.3768 21.0551 24.3225 19.9054 25.1564 18.228C25.7391 17.045 23.6409 17.3049 21.4534 16.5533C21.2521 16.4833 21.0806 16.4395 20.9249 16.4063C22.5051 14.1278 23.143 12.117 22.3599 11.389C20.4069 9.57865 20.4069 9.57865 14.8778 15.4035C12.5853 17.8168 11.1319 20.3289 10.9989 21.861C9.94277 22.0203 9.64177 22.9941 9.42302 23.7283C9.28477 24.1938 9.12815 24.7214 8.81927 25.3015C8.42027 26.0496 8.36252 26.7304 8.64777 27.3254C8.91639 27.8854 9.42302 28.2398 10.0583 28.4935C9.11327 29.96 8.69677 31.6864 9.34164 33.2719C15.5585 48.5669 24.508 48.3604 28.7395 45.2489C32.9736 42.1383 31.4083 40.8564 26.5748 37.849ZM11.7269 34.3639C12.5424 29.7141 18.0208 30.0965 16.5954 31.0704C13.6563 33.0864 11.2745 36.9171 11.7269 34.3639ZM19.573 36.4166C16.6339 38.4318 14.2548 42.2599 14.7045 39.7101C15.5226 35.056 21.0001 35.4393 19.573 36.4166ZM24.8589 40.327C21.9198 42.3421 19.5424 46.172 19.9904 43.6223C20.8103 38.9699 26.2843 39.3531 24.8589 40.327Z" fill="#0B5C30"/>
</svg>
