<svg width="45" height="45" viewBox="0 0 45 45" fill="none" xmlns="http://www.w3.org/2000/svg">
<circle cx="22.5" cy="22.5" r="22.5" fill="#D2EFDF"/>
<path d="M33 20V30C33 30.2652 32.8946 30.5196 32.7071 30.7071C32.5196 30.8946 32.2652 31 32 31H14C13.7348 31 13.4804 30.8946 13.2929 30.7071C13.1054 30.5196 13 30.2652 13 30V20H33ZM33 18H13V14C13 13.7348 13.1054 13.4804 13.2929 13.2929C13.4804 13.1054 13.7348 13 14 13H32C32.2652 13 32.5196 13.1054 32.7071 13.2929C32.8946 13.4804 33 13.7348 33 14V18ZM26 26V28H30V26H26Z" fill="#0B5C30"/>
</svg>
