<svg width="56" height="56" viewBox="0 0 56 56" fill="none" xmlns="http://www.w3.org/2000/svg">
<path d="M20.3466 19.9851L25.6666 39.6668M24.9316 42.0001C26.6232 35.8751 32.5382 31.5001 39.3516 32.2234C45.8382 32.9118 50.9949 38.3834 51.3216 44.8934C51.4032 46.6084 51.1699 48.2534 50.6682 49.7817C50.3649 50.7151 49.4549 51.3334 48.4632 51.3334H13.7176C7.82825 51.3334 3.41124 45.9446 4.56624 40.1696L11.6666 4.66675H25.6666L30.3332 12.8334L20.3349 19.9851L17.4999 16.3334L24.9316 42.0001Z" stroke="#0B5C30" stroke-width="4" stroke-miterlimit="2" stroke-linecap="round" stroke-linejoin="round"/>
<path d="M15.7669 30.5C13.2669 32.1667 9.46686 36.7 14.2669 41.5M36.2666 43.5C41.0666 40.3 45.5999 43.1667 47.2666 45M18.2666 40C21.2666 43.5 19.2666 46.5 18.2666 48M34.7666 39C36.2666 38.5 38.2666 37.9236 39.2666 40" stroke="#0B5C30" stroke-linecap="round" stroke-linejoin="round"/>
</svg>
