<svg width="56" height="56" viewBox="0 0 56 56" fill="none" xmlns="http://www.w3.org/2000/svg">
<path d="M26.6454 19.1906C28.5306 17.7652 30.8244 16.9964 33.181 17C35.6318 17 37.8955 17.8171 39.7165 19.1906L36.3489 22.5849C35.3897 22.0132 34.2954 21.7125 33.181 21.7143C32.0273 21.7143 30.9422 22.0317 30.013 22.5849L26.6454 19.1906ZM39.4172 28C39.4172 26.8371 39.1022 25.7434 38.5534 24.8069L41.921 21.4126C43.2867 23.248 44.0943 25.5297 44.0943 28C44.0943 30.4703 43.2836 32.752 41.921 34.5874L38.5534 31.1931C39.1206 30.2262 39.419 29.1232 39.4172 28ZM33.181 34.2857C34.3347 34.2857 35.4198 33.9683 36.3489 33.4151L39.7165 36.8094C37.8314 38.2348 35.5375 39.0036 33.181 39C30.7301 39 28.4664 38.1829 26.6454 36.8094L30.013 33.4151C30.9723 33.9868 32.0666 34.2875 33.181 34.2857ZM26.9448 28C26.9448 29.1629 27.2597 30.2566 27.8085 31.1931L24.4409 34.5874C23.0268 32.6873 22.264 30.3753 22.2676 28C22.2676 25.5297 23.0783 23.248 24.4409 21.4126L27.8085 24.8069C27.2413 25.7738 26.943 26.8768 26.9448 28ZM17.9054 12.2857C15.8283 14.3318 14.1786 16.7764 13.0535 19.4752C11.9284 22.174 11.3506 25.0726 11.3543 28C11.3543 31.3754 12.1089 34.5686 13.4559 37.4286H9.79524C9.38176 37.4286 8.98521 37.5941 8.69283 37.8888C8.40045 38.1835 8.23619 38.5832 8.23619 39C8.23619 39.4168 8.40045 39.8165 8.69283 40.1112C8.98521 40.4059 9.38176 40.5714 9.79524 40.5714H15.2675C16.047 41.7029 16.9326 42.7526 17.9054 43.7143H3.55905C3.14556 43.7143 2.74901 43.8798 2.45663 44.1745C2.16426 44.4692 2 44.8689 2 45.2857C2 45.7025 2.16426 46.1022 2.45663 46.3969C2.74901 46.6916 3.14556 46.8571 3.55905 46.8571H21.9309C25.2427 48.8631 29.0234 49.947 32.8868 49.9981C36.7503 50.0492 40.5579 49.0657 43.9208 47.1481C47.2837 45.2304 50.0813 42.4474 52.0279 39.0832C53.9744 35.7191 55 31.8944 55 28C55 24.1055 53.9744 20.2809 52.0279 16.9167C50.0813 13.5526 47.2837 10.7696 43.9208 8.85192C40.5579 6.93428 36.7503 5.95078 32.8868 6.0019C29.0234 6.05301 25.2427 7.13691 21.9309 9.14286H6.67714C6.26366 9.14286 5.86711 9.30842 5.57473 9.60312C5.28235 9.89782 5.1181 10.2975 5.1181 10.7143C5.1181 11.1311 5.28235 11.5308 5.57473 11.8255C5.86711 12.1202 6.26366 12.2857 6.67714 12.2857H17.9054ZM33.181 24.8571C34.0079 24.8571 34.801 25.1883 35.3858 25.7777C35.9705 26.3671 36.2991 27.1665 36.2991 28C36.2991 28.8335 35.9705 29.6329 35.3858 30.2223C34.801 30.8117 34.0079 31.1429 33.181 31.1429C32.354 31.1429 31.5609 30.8117 30.9761 30.2223C30.3914 29.6329 30.0629 28.8335 30.0629 28C30.0629 27.1665 30.3914 26.3671 30.9761 25.7777C31.5609 25.1883 32.354 24.8571 33.181 24.8571Z" fill="#0B5C30"/>
</svg>
