<svg width="11" height="24" viewBox="0 0 11 24" fill="none" xmlns="http://www.w3.org/2000/svg">
<path fill-rule="evenodd" clip-rule="evenodd" d="M7.76495 2.61954C7.76495 3.22008 7.52639 3.79602 7.10175 4.22066C6.67711 4.6453 6.10117 4.88386 5.50063 4.88386C4.9001 4.88386 4.32416 4.6453 3.89952 4.22066C3.47487 3.79602 3.23631 3.22008 3.23631 2.61954C3.23631 2.01901 3.47487 1.44307 3.89952 1.01843C4.32416 0.593786 4.9001 0.355225 5.50063 0.355225C6.10117 0.355225 6.67711 0.593786 7.10175 1.01843C7.52639 1.44307 7.76495 2.01901 7.76495 2.61954ZM8.32586 6.20752C8.24822 6.18806 8.16847 6.17828 8.08843 6.17841H2.91155C2.83197 6.17841 2.75304 6.18876 2.67606 6.20817C1.95536 6.38931 1.47079 6.82859 1.16673 7.42767C0.899536 7.95299 0.769499 8.60511 0.662105 9.254L0.0151568 13.1357C-0.00744954 13.2621 -0.00474437 13.3917 0.0231145 13.5171C0.0509735 13.6424 0.103432 13.761 0.177452 13.8659C0.251471 13.9709 0.345579 14.06 0.454321 14.1283C0.563063 14.1966 0.684277 14.2427 0.810939 14.2638C0.937601 14.2849 1.06719 14.2806 1.1922 14.2513C1.31721 14.2219 1.43515 14.1681 1.53919 14.0928C1.64323 14.0175 1.7313 13.9224 1.7983 13.8128C1.86529 13.7033 1.90988 13.5815 1.92948 13.4546L2.57643 9.57295C2.63595 9.2126 2.69158 8.93764 2.74787 8.72544L2.91284 10.7064C2.91284 11.9162 1.81691 17.4398 1.42939 19.3561C1.41191 19.4413 1.41197 19.5291 1.42958 19.6143C1.44719 19.6994 1.48197 19.7801 1.5318 19.8514C1.58163 19.9226 1.64546 19.983 1.71939 20.0288C1.79333 20.0745 1.87582 20.1047 1.96183 20.1176C4.62855 20.5148 6.37272 20.5025 9.0388 20.115C9.12484 20.1025 9.20744 20.0727 9.28158 20.0272C9.35571 19.9818 9.41982 19.9218 9.47 19.8508C9.52017 19.7798 9.55537 19.6993 9.57345 19.6143C9.59152 19.5292 9.59209 19.4414 9.57512 19.3561C9.19018 17.4088 8.08843 11.7454 8.08843 10.7064L8.2534 8.72544C8.30968 8.93764 8.36532 9.21195 8.42484 9.57295L9.07179 13.4546C9.11417 13.7086 9.25569 13.9353 9.46522 14.0849C9.56897 14.159 9.6863 14.2119 9.81049 14.2406C9.93469 14.2693 10.0633 14.2733 10.1891 14.2523C10.3148 14.2313 10.4352 14.1858 10.5433 14.1183C10.6515 14.0508 10.7452 13.9626 10.8193 13.8589C10.8934 13.7551 10.9463 13.6378 10.975 13.5136C11.0038 13.3894 11.0077 13.2608 10.9868 13.135L10.3398 9.25336C10.2318 8.60511 10.1017 7.95234 9.83519 7.42767C9.52983 6.82794 9.04656 6.38931 8.32586 6.20752ZM3.24084 23.0786L2.99759 21.1294C3.68336 21.2135 4.33483 21.2685 4.9766 21.2931L4.5108 23.1556C4.47402 23.3019 4.38727 23.4308 4.26555 23.5199C4.14383 23.609 3.99479 23.6528 3.84421 23.6437C3.69363 23.6345 3.55098 23.5731 3.44092 23.4699C3.33086 23.3667 3.25967 23.2283 3.24084 23.0786ZM6.49046 23.155L6.02854 21.3067C6.68545 21.298 7.34166 21.2604 7.99527 21.1941L7.75978 23.0786C7.74085 23.2283 7.67023 23.3666 7.56012 23.4697C7.45002 23.5728 7.30735 23.6342 7.15678 23.6432C7.00622 23.6523 6.85722 23.6085 6.73555 23.5193C6.61388 23.4301 6.52719 23.3013 6.49046 23.155Z" fill="#0B5C30"/>
</svg>
