<svg width="24" height="25" viewBox="0 0 24 25" fill="none" xmlns="http://www.w3.org/2000/svg">
<path d="M0.754734 20.9505C3.15741 21.5099 5.56012 21.4894 7.9628 21.2621V21.2553C12.9667 20.7442 17.9705 19.2526 22.9744 20.4561C23.4405 20.5683 23.8884 20.2135 23.8884 19.734V5.03895C23.8884 5.00932 23.8861 4.98021 23.8827 4.95139C23.7681 4.64829 23.4998 4.38453 23.1873 4.31206C18.6194 3.24856 14.0514 4.27971 9.48347 4.84639C8.97661 4.91445 8.46975 4.97637 7.96289 5.02817V5.0141C5.56022 5.24135 3.1575 5.26189 0.754828 4.70248C0.337922 4.60582 0 4.84489 0 5.26198V20.0006C0 20.4171 0.337922 20.8539 0.754734 20.9505Z" fill="#0B67B2"/>
<path d="M23.8886 4.96879C23.7778 4.65853 23.5059 4.3859 23.1874 4.31208C20.7668 3.74855 18.3463 3.77348 15.9258 4.00551V20.2536C18.3463 20.0216 20.7668 19.9966 23.1874 20.5602C23.5059 20.634 23.7778 20.5114 23.8886 20.2635V4.96879Z" fill="#FF473E"/>
<path d="M7.96289 21.2623C10.6171 21.0113 13.2714 20.5081 15.9257 20.2537V4.00562C13.2714 4.26005 10.6171 4.76316 7.96289 5.01422V21.2623Z" fill="#E8E8E8"/>
</svg>
