<svg width="24" height="25" viewBox="0 0 24 25" fill="none" xmlns="http://www.w3.org/2000/svg">
<g clip-path="url(#clip0_2815_97)">
<path d="M23.1891 4.31098C15.7125 2.57192 8.23594 6.44379 0.754687 4.70004C0.3375 4.60629 0 4.84535 0 5.26254V20C0 20.4172 0.3375 20.8532 0.754687 20.9516C8.23125 22.6907 15.7078 18.8188 23.1891 20.5625C23.6062 20.661 23.9437 20.4219 23.9437 20.0047V5.26723C23.9437 4.84535 23.6062 4.40942 23.1891 4.31098Z" fill="#0B67B2"/>
<path d="M23.9437 5.2627C23.9437 4.84551 23.6062 4.40957 23.1891 4.31113C23.1422 4.30176 23.0906 4.2877 23.0437 4.27832L14.7141 9.35019V4.1377C12.8859 4.35801 11.0578 4.65801 9.22969 4.87832V9.29394L2.10937 4.95801C1.65937 4.89238 1.20937 4.80801 0.754687 4.7002C0.3375 4.60645 0 4.84551 0 5.2627V6.23769L6 9.88926H0V15.3736H6.27656L0 19.1939V20.0002C0 20.4174 0.3375 20.8533 0.754687 20.9518C0.895312 20.9846 1.03594 21.0127 1.17187 21.0408L9.225 16.133V21.1205C11.0531 20.9002 12.8812 20.6002 14.7094 20.3799V16.0721L21.5953 20.2721C22.125 20.3424 22.6547 20.4361 23.1844 20.5627C23.6016 20.6611 23.9391 20.4221 23.9391 20.0049V19.1424L17.7562 15.3783H23.9391V9.89395H18.0328L23.9391 6.29863C23.9437 5.94707 23.9437 5.60488 23.9437 5.2627Z" fill="#FF473E"/>
<path d="M19.3547 15.7953L23.9437 18.5891V19.6859L17.5547 15.7953H15.15L22.8516 20.4875C22.0734 20.3234 21.2906 20.2203 20.5125 20.1594L15.1359 16.8875V20.3375C14.8547 20.3703 14.5734 20.4031 14.2922 20.4406V14.9563H23.9437V15.8H19.3547V15.7953ZM8.80781 21.1766C9.08906 21.1437 9.37031 21.1109 9.65156 21.0734V14.9516H0V15.7953H4.68281L0 18.6453V19.7422L6.48281 15.7953H8.80781V15.8422L0.548437 20.8719C0.614062 20.9047 0.684375 20.9328 0.754687 20.9516C1.125 21.0359 1.49531 21.1109 1.86562 21.1719L8.80781 16.9437V21.1766ZM0 9.46719V10.3109H9.65156V4.82656C9.37031 4.86406 9.08906 4.89688 8.80781 4.92969V8.49219L3.22031 5.08906C2.41406 5.01875 1.60781 4.90156 0.801562 4.71406L8.60625 9.46719H6.20156L0 5.68906V6.78594L4.40625 9.46719H0ZM15.1359 4.08594C14.8547 4.11875 14.5734 4.15156 14.2922 4.18906V10.3109H23.9437V9.46719H19.6312L23.9437 6.84219V5.74531L17.8312 9.46719H15.4266L23.5687 4.50781C23.4562 4.41406 23.3297 4.34375 23.1891 4.31094C22.9125 4.24531 22.6406 4.19375 22.3641 4.14219L15.1359 8.54375V4.08594Z" fill="#E8E8E8"/>
</g>
<defs>
<clipPath id="clip0_2815_97">
<rect width="24" height="24" fill="white" transform="translate(0 0.631348)"/>
</clipPath>
</defs>
</svg>
