<svg width="40" height="40" viewBox="0 0 40 40" fill="none" xmlns="http://www.w3.org/2000/svg">
<path d="M11.666 8.33325V24.9999C11.666 26.8499 10.1827 28.3333 8.33268 28.3333H6.66602C5.74935 28.3333 4.99935 27.5833 4.99935 26.6666V21.6666H1.66602V26.6666C1.66602 29.4333 3.89935 31.6666 6.66602 31.6666H8.33268C12.016 31.6666 14.9993 28.6833 14.9993 24.9999V8.33325H11.666ZM38.3327 22.2999L36.2827 20.2499C35.6775 19.6419 34.958 19.1596 34.1657 18.8307C33.3734 18.5018 32.5239 18.3327 31.666 18.3333H28.3327V21.6666H31.666C32.4993 21.6666 33.3327 21.9999 33.916 22.5999L34.4994 23.1833L32.4993 24.3333C31.7327 24.7666 30.8827 24.9999 29.9993 24.9999H28.3327C27.3994 24.9999 26.666 24.2666 26.666 23.3333V9.99992H23.3327V16.3499L22.2994 15.1999C21.166 13.9499 19.3327 13.3333 17.6494 13.3333H16.666V16.6666H17.6494C18.716 16.6666 19.7327 17.0833 20.4827 17.8499L23.3327 20.6833V23.3333C23.3327 25.1999 21.866 26.6666 19.9993 26.6666H16.666V29.9999H19.9993C22.2827 29.9999 24.166 28.8333 25.2827 27.0666C25.6779 27.4744 26.1523 27.7972 26.6768 28.015C27.2013 28.2328 27.7648 28.3411 28.3327 28.3333H29.9993C31.466 28.3333 32.8994 27.9499 34.166 27.2166L38.3327 24.8166V22.2999Z" fill="#0B5C30"/>
</svg>
