<svg width="35" height="48" viewBox="0 0 35 48" fill="none" xmlns="http://www.w3.org/2000/svg">
<g clip-path="url(#clip0_2829_1597)">
<path d="M26.25 24H8.75V29.875H26.25V24ZM34.362 10.1387L25.4388 1.14258C25.0286 0.729492 24.4727 0.5 23.8893 0.5H23.3333V12.25H35V11.69C35 11.1117 34.7721 10.5518 34.362 10.1387ZM20.4167 12.9844V0.5H2.1875C0.97526 0.5 0 1.48223 0 2.70312V45.2969C0 46.5178 0.97526 47.5 2.1875 47.5H32.8125C34.0247 47.5 35 46.5178 35 45.2969V15.1875H22.6042C21.401 15.1875 20.4167 14.1961 20.4167 12.9844ZM5.83333 7.10938C5.83333 6.70363 6.15964 6.375 6.5625 6.375H13.8542C14.257 6.375 14.5833 6.70363 14.5833 7.10938V8.57812C14.5833 8.98387 14.257 9.3125 13.8542 9.3125H6.5625C6.15964 9.3125 5.83333 8.98387 5.83333 8.57812V7.10938ZM5.83333 12.9844C5.83333 12.5786 6.15964 12.25 6.5625 12.25H13.8542C14.257 12.25 14.5833 12.5786 14.5833 12.9844V14.4531C14.5833 14.8589 14.257 15.1875 13.8542 15.1875H6.5625C6.15964 15.1875 5.83333 14.8589 5.83333 14.4531V12.9844ZM29.1667 40.8906C29.1667 41.2964 28.8404 41.625 28.4375 41.625H21.1458C20.743 41.625 20.4167 41.2964 20.4167 40.8906V39.4219C20.4167 39.0161 20.743 38.6875 21.1458 38.6875H28.4375C28.8404 38.6875 29.1667 39.0161 29.1667 39.4219V40.8906ZM29.1667 22.5312V31.3438C29.1667 32.1552 28.5141 32.8125 27.7083 32.8125H7.29167C6.48594 32.8125 5.83333 32.1552 5.83333 31.3438V22.5312C5.83333 21.7198 6.48594 21.0625 7.29167 21.0625H27.7083C28.5141 21.0625 29.1667 21.7198 29.1667 22.5312Z" fill="white"/>
</g>
<defs>
<clipPath id="clip0_2829_1597">
<rect width="35" height="47" fill="white" transform="translate(0 0.5)"/>
</clipPath>
</defs>
</svg>
