<svg width="134" height="38" viewBox="0 0 134 38" fill="none" xmlns="http://www.w3.org/2000/svg">
<path fill-rule="evenodd" clip-rule="evenodd" d="M5.20179 0L0 37.2628H6.80234L8.75302 23.5081H16.4057C19.24 23.5081 21.6908 22.9913 23.7582 21.9576C25.8589 20.8905 27.4761 19.4234 28.6099 17.5561C29.7769 15.6887 30.3605 13.5547 30.3605 11.1538C30.3605 8.75302 29.8603 6.73566 28.8599 5.10176C27.8929 3.43452 26.5258 2.16742 24.7585 1.30045C22.9913 0.433483 20.9239 0 18.5564 0H5.20179ZM10.4022 11.5788C11.4965 10.9259 12.6627 10.7477 13.5089 11.1224L15.3966 9.2347L12.2913 6.14637C12.2476 6.10289 12.2123 6.0541 12.1856 6.00207H11.1538L10.4022 11.5788ZM11.4814 17.506H16.8558C17.9695 17.506 18.9731 17.3104 19.8667 16.9191L19.2846 16.3371C18.3069 15.3593 18.1856 13.8494 18.9209 12.7396L16.366 10.1987L14.4756 12.0891C14.9873 13.2446 14.468 14.9967 13.1169 16.3479C12.6105 16.8543 12.0478 17.2438 11.4814 17.506ZM20.8957 16.3313C21.2117 16.1063 21.5016 15.8573 21.7654 15.5842L19.7579 13.5766C19.4533 14.2141 19.5651 15.0007 20.0931 15.5287L20.8957 16.3313ZM22.4836 14.6855C22.5438 14.5939 22.6018 14.5004 22.6578 14.405C22.8047 14.1544 22.9325 13.8949 23.0414 13.6264L22.5183 13.1034C21.9904 12.5754 21.2037 12.4637 20.5663 12.7682L22.4836 14.6855ZM23.4007 12.3689C23.4723 11.964 23.5081 11.5424 23.5081 11.1038C23.5081 9.53662 23.0079 8.30286 22.0076 7.40255C21.5116 6.92371 20.9192 6.56766 20.2303 6.3344L17.1744 9.3903L19.7293 11.9312C20.8391 11.1959 22.349 11.3172 23.3268 12.295L23.4007 12.3689ZM18.6087 6.02267C18.4132 6.00894 18.2124 6.00207 18.0062 6.00207H13.7675L16.2051 8.42628L18.6087 6.02267Z" fill="white"/>
<path d="M32.9124 29.2629L34.7364 16.2069H37.7124L37.3284 19.1109L37.1124 18.6789C37.5604 17.7029 38.1284 17.0229 38.8164 16.6389C39.5204 16.2549 40.3284 16.0629 41.2404 16.0629H42.0084L41.6244 18.8469H40.4964C39.6004 18.8469 38.8404 19.1349 38.2164 19.7109C37.6084 20.2709 37.2164 21.1109 37.0404 22.2309L36.0804 29.2629H32.9124ZM48.6329 29.5509C47.3529 29.5509 46.2329 29.2709 45.2729 28.7109C44.3289 28.1509 43.5929 27.3909 43.0649 26.4309C42.5529 25.4549 42.2969 24.3669 42.2969 23.1669C42.2969 22.1749 42.4649 21.2469 42.8009 20.3829C43.1529 19.5029 43.6409 18.7269 44.2649 18.0549C44.9049 17.3829 45.6409 16.8629 46.4729 16.4949C47.3049 16.1109 48.2169 15.9189 49.2089 15.9189C50.4889 15.9189 51.5769 16.1829 52.4729 16.7109C53.3689 17.2389 54.0489 17.9509 54.5129 18.8469C54.9769 19.7269 55.2089 20.7189 55.2089 21.8229C55.2089 22.1109 55.1849 22.4069 55.1369 22.7109C55.0889 23.0149 55.0249 23.3189 54.9449 23.6229H44.8649L45.0329 21.2229H53.3129L51.7529 22.3029C51.9609 21.5829 51.9769 20.9429 51.8009 20.3829C51.6409 19.8069 51.3289 19.3509 50.8649 19.0149C50.4169 18.6789 49.8569 18.5109 49.1849 18.5109C48.3049 18.5109 47.5929 18.7269 47.0489 19.1589C46.5209 19.5909 46.1289 20.1829 45.8729 20.9349C45.6329 21.6709 45.5129 22.4949 45.5129 23.4069C45.5129 24.1109 45.6409 24.7189 45.8969 25.2309C46.1689 25.7429 46.5449 26.1349 47.0249 26.4069C47.5049 26.6629 48.0649 26.7909 48.7049 26.7909C49.4249 26.7909 50.0569 26.6309 50.6009 26.3109C51.1449 25.9909 51.5769 25.5829 51.8969 25.0869L54.3929 26.3829C54.0889 27.0069 53.6489 27.5589 53.0729 28.0389C52.5129 28.5189 51.8489 28.8949 51.0809 29.1669C50.3289 29.4229 49.5129 29.5509 48.6329 29.5509ZM55.9357 34.0629L58.4317 16.2069H61.4077L61.0717 18.7989L60.3997 18.1029C60.9117 17.3989 61.5597 16.8629 62.3437 16.4949C63.1437 16.1109 64.0237 15.9189 64.9837 15.9189C66.1997 15.9189 67.2717 16.2069 68.1997 16.7829C69.1277 17.3429 69.8557 18.1029 70.3837 19.0629C70.9277 20.0229 71.1997 21.1029 71.1997 22.3029C71.1997 23.2949 71.0157 24.2309 70.6477 25.1109C70.2957 25.9909 69.7997 26.7669 69.1597 27.4389C68.5197 28.0949 67.7757 28.6149 66.9277 28.9989C66.0797 29.3669 65.1677 29.5509 64.1917 29.5509C63.1677 29.5509 62.2397 29.3589 61.4077 28.9749C60.5917 28.5749 59.9677 28.0229 59.5357 27.3189L60.2077 26.7429L59.2237 34.0629H55.9357ZM63.8797 26.6709C64.6637 26.6709 65.3597 26.4789 65.9677 26.0949C66.5757 25.6949 67.0477 25.1669 67.3837 24.5109C67.7357 23.8549 67.9117 23.1269 67.9117 22.3269C67.9117 21.6389 67.7677 21.0309 67.4797 20.5029C67.2077 19.9749 66.8237 19.5589 66.3277 19.2549C65.8317 18.9509 65.2397 18.7989 64.5517 18.7989C63.7837 18.7989 63.0957 18.9989 62.4877 19.3989C61.8957 19.7829 61.4317 20.3029 61.0957 20.9589C60.7597 21.6149 60.5917 22.3429 60.5917 23.1429C60.5917 23.8309 60.7277 24.4469 60.9997 24.9909C61.2877 25.5189 61.6797 25.9349 62.1757 26.2389C62.6717 26.5269 63.2397 26.6709 63.8797 26.6709ZM77.2389 29.2629L79.7349 11.3829H82.8549L88.2789 20.7429L86.3109 20.6229L94.5189 11.3829H97.7349L95.2389 29.2629H91.9749L93.9189 15.1989L94.9029 15.5349L87.0789 24.4629H86.6949L81.1749 14.7909L82.4709 15.1989L80.5029 29.2629H77.2389ZM105.141 29.5509C103.861 29.5509 102.741 29.2709 101.781 28.7109C100.837 28.1509 100.101 27.3909 99.5727 26.4309C99.0607 25.4549 98.8047 24.3669 98.8047 23.1669C98.8047 22.1749 98.9727 21.2469 99.3087 20.3829C99.6607 19.5029 100.149 18.7269 100.773 18.0549C101.413 17.3829 102.149 16.8629 102.981 16.4949C103.813 16.1109 104.725 15.9189 105.717 15.9189C106.997 15.9189 108.085 16.1829 108.981 16.7109C109.877 17.2389 110.557 17.9509 111.021 18.8469C111.485 19.7269 111.717 20.7189 111.717 21.8229C111.717 22.1109 111.693 22.4069 111.645 22.7109C111.597 23.0149 111.533 23.3189 111.453 23.6229H101.373L101.541 21.2229H109.821L108.261 22.3029C108.469 21.5829 108.485 20.9429 108.309 20.3829C108.149 19.8069 107.837 19.3509 107.373 19.0149C106.925 18.6789 106.365 18.5109 105.693 18.5109C104.813 18.5109 104.101 18.7269 103.557 19.1589C103.029 19.5909 102.637 20.1829 102.381 20.9349C102.141 21.6709 102.021 22.4949 102.021 23.4069C102.021 24.1109 102.149 24.7189 102.405 25.2309C102.677 25.7429 103.053 26.1349 103.533 26.4069C104.013 26.6629 104.573 26.7909 105.213 26.7909C105.933 26.7909 106.565 26.6309 107.109 26.3109C107.653 25.9909 108.085 25.5829 108.405 25.0869L110.901 26.3829C110.597 27.0069 110.157 27.5589 109.581 28.0389C109.021 28.5189 108.357 28.8949 107.589 29.1669C106.837 29.4229 106.021 29.5509 105.141 29.5509ZM117.341 29.5509C116.509 29.5509 115.765 29.4149 115.109 29.1429C114.469 28.8709 113.965 28.4709 113.597 27.9429C113.229 27.4149 113.045 26.7669 113.045 25.9989C113.045 25.1669 113.253 24.4549 113.669 23.8629C114.085 23.2709 114.661 22.7909 115.397 22.4229C116.133 22.0389 116.981 21.7749 117.941 21.6309L122.333 20.9349L122.093 23.3349L118.397 23.9829C117.805 24.0949 117.309 24.3029 116.909 24.6069C116.509 24.8949 116.309 25.2949 116.309 25.8069C116.309 26.2549 116.469 26.5909 116.789 26.8149C117.125 27.0389 117.549 27.1509 118.061 27.1509C118.701 27.1509 119.277 27.0069 119.789 26.7189C120.301 26.4149 120.725 26.0149 121.061 25.5189C121.397 25.0229 121.597 24.4789 121.661 23.8869L122.117 20.6229C122.181 20.1909 122.109 19.8309 121.901 19.5429C121.709 19.2389 121.437 19.0069 121.085 18.8469C120.733 18.6869 120.349 18.6069 119.933 18.6069C119.213 18.6069 118.565 18.7989 117.989 19.1829C117.429 19.5669 116.997 20.0549 116.693 20.6469L114.221 19.2549C114.557 18.5669 115.013 17.9829 115.589 17.5029C116.181 17.0069 116.861 16.6229 117.629 16.3509C118.413 16.0629 119.245 15.9189 120.125 15.9189C121.181 15.9189 122.117 16.1269 122.933 16.5429C123.765 16.9589 124.397 17.5269 124.829 18.2469C125.261 18.9669 125.405 19.8069 125.261 20.7669L124.085 29.2629H121.085L121.397 27.0309L122.189 27.0549C121.789 27.6149 121.341 28.0789 120.845 28.4469C120.349 28.8149 119.805 29.0869 119.213 29.2629C118.637 29.4549 118.013 29.5509 117.341 29.5509ZM127.014 29.2629L129.558 11.0949H132.726L130.182 29.2629H127.014Z" fill="white"/>
</svg>
