<svg width="11" height="24" viewBox="0 0 11 24" fill="none" xmlns="http://www.w3.org/2000/svg">
<path d="M6.36667 4.48935C6.0919 4.60661 5.79741 4.66697 5.5 4.66697C4.89936 4.66697 4.32333 4.42112 3.89861 3.98351C3.4739 3.5459 3.23529 2.95236 3.23529 2.33349C3.23529 1.71461 3.4739 1.12108 3.89861 0.683462C4.32333 0.245849 4.89936 0 5.5 0C5.79741 0 6.0919 0.0603575 6.36667 0.177626C6.64143 0.294895 6.89109 0.466778 7.10139 0.683462C7.31169 0.900146 7.4785 1.15739 7.59232 1.4405C7.70613 1.72361 7.76471 2.02705 7.76471 2.33349C7.76471 2.63992 7.70613 2.94336 7.59232 3.22647C7.4785 3.50958 7.31169 3.76682 7.10139 3.98351C6.89109 4.20019 6.64143 4.37208 6.36667 4.48935Z" fill="#0B5C30"/>
<path d="M8.91647 10.082C8.89188 9.81997 8.86341 9.56862 8.83106 9.33394H8.41177V23.0015C8.41137 23.2595 8.3142 23.5074 8.14056 23.6933C7.96693 23.8793 7.73026 23.9889 7.48003 23.9992C7.22981 24.0095 6.98539 23.9198 6.79788 23.7488C6.61036 23.5778 6.49425 23.3387 6.47382 23.0815L5.92382 16.001H5.07618L4.52618 23.0815C4.50575 23.3387 4.38964 23.5778 4.20212 23.7488C4.01461 23.9198 3.77019 24.0095 3.51997 23.9992C3.26974 23.9889 3.03307 23.8793 2.85944 23.6933C2.6858 23.5074 2.58863 23.2595 2.58824 23.0015V9.33394H2.16829C2.13594 9.56862 2.10747 9.81997 2.08353 10.082C1.94118 11.5788 1.94118 13.2009 1.94118 13.6676C1.94118 13.9328 1.83892 14.1872 1.6569 14.3747C1.47488 14.5623 1.228 14.6676 0.970588 14.6676C0.713172 14.6676 0.466299 14.5623 0.284279 14.3747C0.102258 14.1872 0 13.9328 0 13.6676V13.6629C0 13.1915 0 11.4867 0.150118 9.88798C0.225176 9.09526 0.342294 8.26787 0.537059 7.61716C0.631529 7.29781 0.766118 6.94912 0.970588 6.66043C1.17506 6.37042 1.55877 6.00039 2.14177 6.00039H8.85759C9.43994 6.00039 9.82365 6.37042 10.0288 6.65977C10.2326 6.94912 10.3672 7.29781 10.4623 7.61716C10.6571 8.26787 10.7742 9.09459 10.8486 9.88798C11 11.4867 11 13.1915 11 13.6629V13.6629V13.6676C11 13.9328 10.8977 14.1872 10.7157 14.3747C10.5337 14.5623 10.2868 14.6676 10.0294 14.6676C9.772 14.6676 9.52512 14.5623 9.3431 14.3747C9.16108 14.1872 9.05882 13.9328 9.05882 13.6676V13.6675C9.05882 13.2008 9.05882 11.5787 8.91647 10.082Z" fill="#0B5C30"/>
</svg>
