<svg width="41" height="40" viewBox="0 0 41 40" fill="none" xmlns="http://www.w3.org/2000/svg">
<path fill-rule="evenodd" clip-rule="evenodd" d="M9.18964 8.19775C11.1843 7.54304 13.1944 6.93653 15.2183 6.37875V6.38087C17.577 5.74125 19.7488 5.26737 20.875 5.26737C22.0034 5.26737 24.173 5.74125 26.5318 6.38087C28.8416 7.00775 31.177 7.74513 32.5604 8.19775C32.7426 8.25653 32.9047 8.36543 33.0279 8.51199C33.1512 8.65856 33.2307 8.83686 33.2574 9.0265C34.4346 17.8601 31.7146 24.3074 28.4698 28.551C27.0959 30.3666 25.4578 31.966 23.6099 33.2961C22.8746 33.8125 22.2223 34.1886 21.7123 34.4287C21.4573 34.5499 21.249 34.6306 21.0875 34.6795C21.0183 34.7031 20.9472 34.7209 20.875 34.7326C20.802 34.7217 20.7301 34.704 20.6604 34.6795C20.501 34.6306 20.2928 34.5499 20.0378 34.4287C19.5256 34.1886 18.8754 33.8146 18.1401 33.2961C16.2923 31.966 14.6541 30.3666 13.2803 28.551C10.0354 24.3053 7.31539 17.8601 8.49264 9.0265C8.51954 8.83695 8.59914 8.65876 8.72237 8.51224C8.8456 8.36572 9.0075 8.25675 9.18964 8.19775ZM20.875 3C19.4088 3 16.9586 3.56313 14.653 4.19C12.5935 4.75679 10.5479 5.37322 8.51814 6.03875C7.93353 6.23181 7.41524 6.58586 7.02281 7.06024C6.63038 7.53462 6.37972 8.11007 6.29964 8.7205C5.03314 18.2341 7.97201 25.2849 11.5378 29.9493C13.0499 31.9445 14.8528 33.7016 16.8864 35.1619C17.5896 35.6672 18.3346 36.1115 19.1134 36.49C19.7105 36.7705 20.348 37 20.875 37C21.402 37 22.0416 36.7705 22.6366 36.49C23.4154 36.1115 24.1605 35.6672 24.8636 35.1619C26.8972 33.7017 28.7002 31.9446 30.2123 29.9493C33.778 25.2849 36.7169 18.2341 35.4504 8.7205C35.3703 8.11007 35.1196 7.53462 34.7272 7.06024C34.3348 6.58586 33.8165 6.23181 33.2319 6.03875C31.8336 5.58187 29.4558 4.8275 27.097 4.19C24.7914 3.56313 22.3413 3 20.875 3ZM27.1702 14.2802C27.1166 14.1511 27.0381 14.0339 26.9391 13.9352C26.8404 13.8362 26.7232 13.7577 26.5941 13.7042C26.465 13.6506 26.3266 13.623 26.1869 13.623C26.0471 13.623 25.9088 13.6506 25.7797 13.7042C25.6506 13.7577 25.5333 13.8362 25.4346 13.9352L19.8119 19.5601L17.3766 17.1227C17.2779 17.0239 17.1606 16.9455 17.0315 16.8921C16.9024 16.8386 16.7641 16.8111 16.6244 16.8111C16.4847 16.8111 16.3463 16.8386 16.2173 16.8921C16.0882 16.9455 15.9709 17.0239 15.8721 17.1227C15.7734 17.2215 15.695 17.3388 15.6415 17.4678C15.5881 17.5969 15.5605 17.7352 15.5605 17.8749C15.5605 18.0147 15.5881 18.153 15.6415 18.2821C15.695 18.4111 15.7734 18.5284 15.8721 18.6272L19.0596 21.8147C19.1583 21.9136 19.2756 21.9921 19.4047 22.0457C19.5338 22.0993 19.6721 22.1268 19.8119 22.1268C19.9516 22.1268 20.09 22.0993 20.2191 22.0457C20.3482 21.9921 20.4654 21.9136 20.5641 21.8147L26.9391 15.4397C27.0381 15.341 27.1166 15.2238 27.1702 15.0947C27.2237 14.9656 27.2513 14.8272 27.2513 14.6874C27.2513 14.5477 27.2237 14.4093 27.1702 14.2802Z" fill="#0B5C30"/>
</svg>
