<svg width="56" height="56" viewBox="0 0 56 56" fill="none" xmlns="http://www.w3.org/2000/svg">
<path d="M32.6663 30.3333C34.6108 30.3333 36.2636 29.6527 37.6247 28.2916C38.9858 26.9305 39.6663 25.2777 39.6663 23.3333C39.6663 21.3888 38.9858 19.736 37.6247 18.3749C36.2636 17.0138 34.6108 16.3333 32.6663 16.3333C30.7219 16.3333 29.0691 17.0138 27.708 18.3749C26.3469 19.736 25.6663 21.3888 25.6663 23.3333C25.6663 25.2777 26.3469 26.9305 27.708 28.2916C29.0691 29.6527 30.7219 30.3333 32.6663 30.3333ZM16.333 37.3333C15.0497 37.3333 13.9515 36.8759 13.0383 35.9613C12.1237 35.0481 11.6663 33.9499 11.6663 32.6666V13.9999C11.6663 12.7166 12.1237 11.6184 13.0383 10.7053C13.9515 9.79058 15.0497 9.33325 16.333 9.33325H48.9997C50.283 9.33325 51.382 9.79058 52.2967 10.7053C53.2098 11.6184 53.6663 12.7166 53.6663 13.9999V32.6666C53.6663 33.9499 53.2098 35.0481 52.2967 35.9613C51.382 36.8759 50.283 37.3333 48.9997 37.3333H16.333ZM6.99967 46.6666C5.71634 46.6666 4.61812 46.21 3.70501 45.2969C2.79034 44.3823 2.33301 43.2833 2.33301 41.9999V18.6666C2.33301 18.0055 2.55701 17.4509 3.00501 17.0029C3.45145 16.5565 4.00523 16.3333 4.66634 16.3333C5.32745 16.3333 5.88201 16.5565 6.33001 17.0029C6.77645 17.4509 6.99967 18.0055 6.99967 18.6666V41.9999H44.333C44.9941 41.9999 45.5479 42.2239 45.9943 42.6719C46.4423 43.1184 46.6663 43.6721 46.6663 44.3333C46.6663 44.9944 46.4423 45.5481 45.9943 45.9946C45.5479 46.4426 44.9941 46.6666 44.333 46.6666H6.99967ZM16.333 18.6666C17.6163 18.6666 18.7146 18.2093 19.6277 17.2946C20.5423 16.3815 20.9997 15.2833 20.9997 13.9999H16.333V18.6666ZM48.9997 18.6666V13.9999H44.333C44.333 15.2833 44.7896 16.3815 45.7027 17.2946C46.6173 18.2093 47.7163 18.6666 48.9997 18.6666ZM16.333 32.6666H20.9997C20.9997 31.3833 20.5423 30.2843 19.6277 29.3696C18.7146 28.4565 17.6163 27.9999 16.333 27.9999V32.6666ZM44.333 32.6666H48.9997V27.9999C47.7163 27.9999 46.6173 28.4565 45.7027 29.3696C44.7896 30.2843 44.333 31.3833 44.333 32.6666Z" fill="#0B5C30"/>
</svg>
