<svg width="45" height="45" viewBox="0 0 45 45" fill="none" xmlns="http://www.w3.org/2000/svg">
<circle cx="22.5" cy="22.5" r="22.5" fill="#D2EFDF"/>
<path d="M31.0671 18.478C31.5591 19.358 31.6231 20.492 31.3671 21.805C30.6271 25.611 28.0911 26.925 24.8531 26.925H24.3531C24.1615 26.9253 23.9763 26.9939 23.8307 27.1186C23.6852 27.2432 23.5889 27.4157 23.5591 27.605L23.5191 27.825L22.8891 31.818L22.8571 31.988C22.8273 32.1772 22.731 32.3496 22.5854 32.474C22.4399 32.5985 22.2546 32.6669 22.0631 32.667H18.7201C18.6504 32.667 18.5814 32.6518 18.5181 32.6226C18.4547 32.5934 18.3984 32.5509 18.3531 32.4978C18.3078 32.4448 18.2745 32.3826 18.2555 32.3155C18.2365 32.2484 18.2323 32.1779 18.2431 32.109L18.4181 31H19.9361L20.8861 24.98H22.2711C26.9491 24.98 30.0211 22.777 31.0671 18.478ZM28.1071 13.388C28.8691 14.256 29.0901 15.198 28.8591 16.673C28.8401 16.796 28.8191 16.913 28.7971 17.033C28.0621 20.806 25.7081 22.479 21.8411 22.479H19.9571C19.3271 22.479 18.7831 22.893 18.6031 23.481L18.5891 23.479L17.6591 29.373H14.1211C14.1137 29.373 14.1063 29.3713 14.0996 29.3681C14.0929 29.365 14.0869 29.3604 14.0821 29.3547C14.0774 29.3489 14.0739 29.3422 14.072 29.335C14.0701 29.3279 14.0698 29.3203 14.0711 29.313L16.6691 12.803C16.7041 12.5793 16.8179 12.3755 16.9899 12.2283C17.1618 12.0811 17.3807 12.0001 17.6071 12H23.5831C25.7661 12 27.2991 12.469 28.1061 13.388H28.1071Z" fill="#0B5C30"/>
</svg>
