<svg width="56" height="56" viewBox="0 0 56 56" fill="none" xmlns="http://www.w3.org/2000/svg">
<path fill-rule="evenodd" clip-rule="evenodd" d="M28.0312 5C26.701 4.99883 25.3874 5.30219 24.1891 5.88792C22.9907 6.47368 21.9384 7.3269 21.1123 8.38445C20.6211 9.01333 19.803 9.29 19.0309 9.08838C17.8908 8.79068 16.7034 8.72657 15.5387 8.89971C14.3739 9.07285 13.2546 9.47985 12.247 10.0974C11.2393 10.7149 10.3636 11.5306 9.67218 12.4971C8.98075 13.4636 8.48791 14.561 8.22358 15.7245C7.95924 16.8881 7.92895 18.0936 8.13457 19.2693C8.34018 20.445 8.77738 21.5664 9.41958 22.5672C10.0618 23.568 10.8957 24.4276 11.8713 25.096C12.8469 25.7643 13.9445 26.228 15.0993 26.4604C16.033 26.6483 16.7047 27.4686 16.7047 28.4211V32.5789H18.9683V29.5263C18.9683 27.0423 20.9697 25 23.4736 25C25.9775 25 27.9789 27.0423 27.9789 29.5263V32.5789H40.2632V28.4198C40.2632 27.465 40.938 26.6434 41.8745 26.4579C43.0578 26.2235 44.1817 25.7464 45.1764 25.0553C46.1712 24.3642 47.0157 23.4737 47.657 22.4381C48.2983 21.4024 48.7223 20.2441 48.9021 19.0349C49.0819 17.8256 49.0135 16.592 48.7012 15.4108C48.389 14.2297 47.8398 13.1267 47.0885 12.1702C46.3372 11.2137 45.4001 10.4241 44.3358 9.84942C43.2715 9.27477 42.1024 8.92705 40.9008 8.82712C39.6992 8.7272 38.4899 8.87713 37.3474 9.26793C36.5233 9.54984 35.6115 9.26598 35.093 8.56611C34.2709 7.4563 33.2042 6.55693 31.979 5.93837C30.7538 5.31985 29.4032 4.9988 28.0347 5H28.0312ZM28.033 1C26.0924 0.998565 24.1774 1.44135 22.4325 2.29426C21.0691 2.96068 19.8378 3.86368 18.7931 4.95809C17.5227 4.75917 16.2273 4.7534 14.9505 4.94318C13.2523 5.19561 11.6223 5.78878 10.1569 6.68688C8.69145 7.58496 7.42067 8.76951 6.41897 10.1697C5.41729 11.5699 4.70483 13.1575 4.32296 14.8384C3.9411 16.5194 3.89739 18.2602 4.19437 19.9584C4.49135 21.6565 5.12313 23.2782 6.05307 24.7274C6.98303 26.1767 8.19249 27.4243 9.61066 28.3959C10.5696 29.0528 11.6106 29.5744 12.7047 29.948V34.5789C12.7047 35.6835 13.6001 36.5789 14.7047 36.5789H20.9683C22.0729 36.5789 22.9683 35.6835 22.9683 34.5789V29.5263C22.9683 29.2199 23.2102 29 23.4736 29C23.737 29 23.9789 29.2199 23.9789 29.5263V34.5789C23.9789 35.6835 24.8744 36.5789 25.9789 36.5789H42.2632C43.3677 36.5789 44.2632 35.6835 44.2632 34.5789V29.9513C45.3955 29.5679 46.4714 29.0263 47.4587 28.3403C48.9046 27.3358 50.1293 26.0433 51.0578 24.5439C51.9863 23.0444 52.5989 21.3696 52.8586 19.6232C53.1183 17.8768 53.0196 16.0952 52.5684 14.3886C52.1172 12.6819 51.3231 11.0858 50.2342 9.6995C49.1453 8.31312 47.7848 7.16587 46.2363 6.32973C44.6877 5.49357 42.9845 4.98659 41.2323 4.84088C39.9493 4.73419 38.6604 4.8229 37.4088 5.10158C36.3737 3.98365 35.1464 3.0566 33.7816 2.36761C31.9979 1.4671 30.0294 0.998525 28.033 1Z" fill="#0B5C30"/>
<path d="M12.7051 40.6316C12.7051 39.527 13.6005 38.6316 14.7051 38.6316H42.2636C43.3681 38.6316 44.2636 39.527 44.2636 40.6316V49.4737C44.2636 50.6688 43.7929 51.8183 42.9499 52.6684C42.1063 53.5191 40.9585 54 39.7582 54H17.2104C16.0101 54 14.8624 53.5191 14.0188 52.6684C13.1757 51.8183 12.7051 50.6688 12.7051 49.4737V40.6316Z" fill="#0B5C30"/>
<path fill-rule="evenodd" clip-rule="evenodd" d="M28 17.5C28 16.3954 28.8954 15.5 30 15.5H40.5C41.6046 15.5 42.5 16.3954 42.5 17.5C42.5 18.6046 41.6046 19.5 40.5 19.5H30C28.8954 19.5 28 18.6046 28 17.5Z" fill="#0B5C30"/>
</svg>
