<svg width="50" height="32" viewBox="0 0 50 32" fill="none" xmlns="http://www.w3.org/2000/svg">
<path d="M9.18285 0C12.8411 0 15.4914 1.34293 17.1339 4.02878C17.8804 5.17986 18.4777 6.59952 18.9256 8.28777C19.3736 9.97602 19.5975 11.741 19.5975 13.5827C19.5975 17.5731 18.5897 21.1799 16.5739 24.4029C14.6328 27.6259 11.7212 30.1583 7.83902 32L6.83115 29.9281C8.99621 29.0072 10.8626 27.5875 12.4304 25.6691C14.0729 23.7506 15.0435 21.7938 15.3421 19.7986C15.5661 18.8777 15.678 17.9952 15.678 17.1511C15.678 16.3837 15.5661 15.6547 15.3421 14.964C13.6996 16.8058 11.5346 17.7266 8.84689 17.7266C6.23389 17.7266 4.10615 16.9592 2.46369 15.4245C0.82123 13.813 0 11.6259 0 8.86332C0 6.2542 0.858559 4.14388 2.57568 2.53237C4.2928 0.844125 6.49519 0 9.18285 0Z" fill="white"/>
<path d="M39.5853 0C43.2435 0 45.8938 1.34293 47.5363 4.02878C48.2829 5.17986 48.8801 6.59952 49.3281 8.28777C49.776 9.97602 50 11.741 50 13.5827C50 17.5731 48.9921 21.1799 46.9764 24.4029C45.0353 27.6259 42.1236 30.1583 38.2415 32L37.2336 29.9281C39.3987 29.0072 41.2651 27.5875 42.8329 25.6691C44.4753 23.7506 45.4459 21.7938 45.7445 19.7986C45.9685 18.8777 46.0805 17.9952 46.0805 17.1511C46.0805 16.3837 45.9685 15.6547 45.7445 14.964C44.1021 16.8058 41.937 17.7266 39.2493 17.7266C36.6363 17.7266 34.5086 16.9592 32.8661 15.4245C31.2237 13.813 30.4024 11.6259 30.4024 8.86332C30.4024 6.2542 31.261 4.14388 32.9781 2.53237C34.6952 0.844125 36.8976 0 39.5853 0Z" fill="white"/>
</svg>
