<svg width="56" height="56" viewBox="0 0 56 56" fill="none" xmlns="http://www.w3.org/2000/svg">
<path d="M52.1457 31.3941C55.4978 25.0084 48.6842 20.58 39.7758 18.4083C40.4461 16.8849 40.6403 14.8907 38.7503 12.9867C36.3266 10.5499 37.9374 7 37.9374 7C37.9374 7 32.8502 11.6926 36.0623 14.9284C37.2471 16.121 37.8639 17.1684 38.1588 18.0443C35.6996 17.5373 33.2094 17.1942 30.7047 17.017C31.4528 14.9835 31.5254 12.4294 29.1682 9.98375C25.9412 6.63162 28.0902 1.75 28.0902 1.75C28.0902 1.75 21.3063 8.20225 25.5894 12.6508C27.1531 14.273 27.9764 15.701 28.3754 16.898C25.7207 16.8184 23.1657 16.9347 20.8959 17.2524C21.1663 15.9442 20.9406 14.4401 19.4977 12.9876C17.0739 10.5508 18.6857 7 18.6857 7C18.6857 7 13.5976 11.6926 16.8106 14.9284C17.8168 15.9416 18.4066 16.8464 18.7452 17.6347C18.3619 17.7187 17.9901 17.8097 17.6322 17.9086C6.57045 16.8735 1.7457 19.159 3.94982 23.6425C0.103324 27.489 1.54882 31.8789 6.3622 35.238C8.87345 45.5814 9.52007 54.25 28.4341 54.25C45.3111 54.25 47.6429 47.3463 49.7333 38.5105C56.0053 37.2619 54.6692 34.2554 52.1457 31.3941ZM50.5821 30.3608C48.4812 34.8408 39.3637 38.213 28.4341 38.213C17.5053 38.213 8.38782 34.8408 6.28607 30.3608C6.24145 30.2278 6.19857 30.0895 6.1557 29.9548C7.1567 27.4155 10.4099 25.2122 14.9792 23.737C13.9056 24.7747 13.6824 26.3244 16.5078 26.8678C17.3163 27.0235 19.5362 26.4845 18.5658 23.73C18.4302 23.345 18.2088 23.0869 17.9367 22.9311C21.0762 22.2128 24.6401 21.7989 28.4341 21.7989C28.8593 21.7989 29.2767 21.8137 29.6958 21.8234C27.5066 22.6004 25.7207 24.9944 30.1911 25.7005C31.1781 25.8562 33.8879 25.3172 32.7032 22.5627C32.5997 22.3172 32.4338 22.1031 32.2219 21.9415C36.4106 22.2495 40.2054 23.0563 43.2732 24.2191C40.5756 24.0686 37.5831 25.7311 42.3754 28.0718C43.4036 28.574 46.5273 29.0351 46.0977 25.9936C46.0666 25.7739 45.9891 25.5633 45.8702 25.3759C48.3228 26.6682 50.0334 28.2354 50.7116 29.9548L50.5821 30.3608Z" fill="#0B5C30"/>
<path d="M22.6073 32.2358C25.4362 32.2358 27.3227 29.6781 28.8006 28.6771C30.8656 27.2771 36.0578 26.7311 31.4851 26.6209C27.1477 26.5168 21.7927 30.0378 18.214 29.7954C12.2885 29.3929 18.3575 32.2358 22.6073 32.2358ZM28.7201 37.4613C29.7193 37.6538 32.466 36.987 31.2646 33.5806C29.9075 29.7263 21.6921 36.1085 28.7201 37.4613ZM13.1661 29.0306C12.2115 27.6831 10.8272 25.9743 10.2541 26.8641C9.47096 28.0813 9.22421 30.5304 9.79296 30.6389C14.252 31.4938 13.9396 30.1218 13.1661 29.0306ZM39.088 29.5766C39.8921 28.5809 38.2865 26.1843 37.2557 26.6034C35.6422 27.2596 34.7121 26.8151 34.0033 27.8109C32.3435 30.1428 37.9951 30.9285 39.088 29.5766ZM38.5857 32.43C37.429 31.9199 37.702 33.6288 35.9931 32.2576C34.7698 31.2759 32.1378 33.7521 33.8738 35.4339C35.8058 37.3055 36.3203 35.5266 37.1323 35.6763C38.7826 35.9799 41.6202 33.7688 38.5857 32.43ZM19.3515 33.0145C18.7486 32.4213 17.9401 33.137 17.4833 34.0103C17.031 33.788 16.6626 33.7364 16.6626 33.7364C16.317 32.7511 15.2888 32.0756 15.2888 32.0756C15.2888 32.0756 15.3825 33.1003 15.5181 33.5999C14.3823 33.1965 14.3473 31.1665 14.3473 31.1665C14.3473 31.1665 13.5852 31.6224 13.6543 32.3968C12.404 31.3879 11.3391 31.8595 11.3391 31.8595C11.3391 31.8595 12.9255 32.752 13.1442 33.354C12.2535 33.4231 11.7337 33.7311 11.431 34.4478C11.4318 34.4539 13.1915 33.6104 14.4935 34.2194C13.9798 34.6394 14.2353 35.6885 14.2353 35.6885C15.4472 34.404 16.415 34.5414 17.1893 34.7715C17.0957 35.1644 17.1018 35.5231 17.2681 35.741C18.6112 37.5068 23.2898 37.1095 24.5463 35.804C26.068 34.2246 21.84 35.4636 19.3515 33.0145Z" fill="#0B5C30"/>
<path d="M22.6565 26.3637C22.2584 27.1635 22.2558 27.7672 22.716 28.3955C22.7222 28.3972 22.9015 26.4547 24.0924 25.6497C24.1895 26.306 25.2203 26.6245 25.2203 26.6245C24.396 23.7055 26.8023 23.5532 26.7909 22.5059C25.5152 22.6135 24.7907 23.541 24.7907 23.541C23.7678 23.3319 22.6592 23.8665 22.6592 23.8665C22.6592 23.8665 23.5875 24.3119 24.0854 24.4527C23.1562 25.2201 21.3957 24.2077 21.3957 24.2077C21.3957 24.2077 21.3957 25.0967 22.0957 25.4336C20.588 25.9892 20.4463 27.1442 20.4463 27.1442C20.4463 27.1442 22.0265 26.2421 22.6565 26.3637ZM45.0137 30.3502C45.3759 29.6625 44.8474 28.9476 44.8474 28.9476C44.8474 28.9476 44.0345 30.8087 42.8314 30.7449C43.1482 30.3354 43.6294 29.4254 43.6294 29.4254C43.6294 29.4254 42.4202 29.6555 41.7219 30.4316C41.7219 30.4316 40.5879 30.1175 39.4994 30.7895C40.1137 31.6382 42.1384 30.3284 43.212 33.1651C43.212 33.1651 43.8508 32.2962 43.5384 31.7109C44.9752 31.6487 46.2754 33.103 46.2798 33.0977C46.2745 32.319 45.914 31.836 45.1169 31.43C45.5509 30.9584 47.3587 30.744 47.3587 30.744C47.3587 30.744 46.5572 29.8996 45.0137 30.3502Z" fill="#0B5C30"/>
</svg>
