<svg width="40" height="40" viewBox="0 0 40 40" fill="none" xmlns="http://www.w3.org/2000/svg">
<path fill-rule="evenodd" clip-rule="evenodd" d="M8.92832 16.0236C9.28351 15.4316 10.0513 15.2396 10.6433 15.5948C11.9086 16.354 13.071 17.6694 14.0773 19.0782C15.1013 20.5118 16.0435 22.1574 16.8396 23.6966C17.4106 24.8005 17.9126 25.8617 18.3218 26.7691C18.5339 26.2886 18.7702 25.7679 19.0261 25.2259C20.1196 22.9102 21.6476 20.0404 23.2515 18.3155C23.7216 17.8099 24.5125 17.7812 25.0181 18.2513C25.5236 18.7214 25.5524 19.5123 25.0823 20.0179C23.7695 21.4297 22.3808 23.9765 21.2868 26.2934C20.7507 27.4286 20.3032 28.4695 19.9898 29.2265C19.8332 29.6047 19.7105 29.9111 19.6273 30.1219C19.5857 30.2273 19.5541 30.3088 19.533 30.3633L19.5095 30.4245L19.5038 30.4392L19.5026 30.4425C19.5026 30.4425 19.5026 30.4424 19.5026 30.4425C19.3189 30.9271 18.8549 31.2487 18.3366 31.25C17.8183 31.2513 17.353 30.9326 17.1669 30.4489C17.1669 30.4489 17.1669 30.449 17.1669 30.4489L17.1647 30.4433L17.1566 30.4224L17.1229 30.3364C17.0927 30.2599 17.0474 30.146 16.9879 29.9993C16.869 29.7058 16.6936 29.2817 16.4699 28.7641C16.022 27.7274 15.3834 26.3227 14.6191 24.8451C13.8527 23.3635 12.972 21.832 12.0429 20.5313C11.096 19.2056 10.1751 18.2294 9.35707 17.7386C8.76509 17.3834 8.57314 16.6155 8.92832 16.0236Z" fill="#0B5C30"/>
<path fill-rule="evenodd" clip-rule="evenodd" d="M31.2702 12.762C31.2208 12.2554 30.9726 11.7891 30.5799 11.4651C30.1873 11.1412 29.6823 10.9861 29.1755 11.0339L23.6997 11.5608C23.6997 11.5608 23.6997 11.5608 23.6997 11.5608C22.7593 11.6513 21.8459 11.9261 21.0117 12.3697C20.1775 12.8132 19.4388 13.4167 18.8379 14.1458C18.2369 14.8748 17.7855 15.7151 17.5094 16.6187C17.2333 17.5222 17.1378 18.4713 17.2285 19.4117C17.6113 23.3807 21.1956 26.2554 25.1338 25.8777C29.1353 25.4911 32.1529 21.9294 31.7654 17.8971L31.2702 12.762ZM28.8373 13.578L29.2768 18.1363C29.5294 20.764 27.5528 23.1323 24.8944 23.3891M28.8373 13.578L23.9392 14.0493C23.3256 14.1083 22.7296 14.2877 22.1853 14.5771C21.641 14.8664 21.1591 15.2602 20.767 15.7359C20.3749 16.2116 20.0804 16.7598 19.9002 17.3493C19.7201 17.9389 19.6578 18.5581 19.717 19.1717C19.9642 21.7358 22.2996 23.6376 24.8944 23.3891" fill="#0B5C30"/>
<path fill-rule="evenodd" clip-rule="evenodd" d="M2.08398 19.9999C2.08398 10.1046 10.1053 2.08325 20.0007 2.08325C29.896 2.08325 37.9173 10.1046 37.9173 19.9999C37.9173 29.8953 29.896 37.9166 20.0007 37.9166C10.1053 37.9166 2.08398 29.8953 2.08398 19.9999ZM20.0007 4.58325C11.486 4.58325 4.58398 11.4853 4.58398 19.9999C4.58398 28.5146 11.486 35.4166 20.0007 35.4166C28.5153 35.4166 35.4173 28.5146 35.4173 19.9999C35.4173 11.4853 28.5153 4.58325 20.0007 4.58325Z" fill="#0B5C30"/>
</svg>
