<svg width="40" height="40" viewBox="0 0 40 40" fill="none" xmlns="http://www.w3.org/2000/svg">
<path fill-rule="evenodd" clip-rule="evenodd" d="M6.14845 10L33.9129 10C34.494 10 35.0686 10.1215 35.5998 10.3568C36.1311 10.592 36.6073 10.9357 36.9978 11.3659C37.3884 11.7961 37.6846 12.3032 37.8676 12.8547C38.0505 13.4061 38.1161 13.9897 38.0602 14.5681L36.2118 33.6548C36.1319 34.4794 35.7477 35.2449 35.1342 35.8017C34.5208 36.3584 33.7221 36.6667 32.8937 36.6667C32.8937 36.6667 32.8938 36.6667 32.8937 36.6667H7.58623C6.77058 36.6662 5.98339 36.3668 5.3737 35.825C4.76407 35.2832 4.37421 34.5367 4.27792 33.7269C4.27791 33.7268 4.27793 33.7269 4.27792 33.7269L2.00958 14.6585C1.94011 14.0739 1.99531 13.4809 2.17159 12.9191C2.34788 12.3574 2.64123 11.8393 3.0323 11.3992C3.42337 10.959 3.90328 10.6068 4.4404 10.3656C4.97736 10.1245 5.55985 9.99989 6.14845 10ZM6.14738 13.3333C6.02963 13.3333 5.9132 13.3582 5.80577 13.4064C5.69835 13.4547 5.60237 13.5251 5.52415 13.6132C5.44594 13.7012 5.38727 13.8048 5.35201 13.9172C5.31678 14.0294 5.30572 14.1479 5.31958 14.2648L5.6053 16.6667H34.508L34.7423 14.2469C34.7535 14.1313 34.7404 14.0146 34.7038 13.9043C34.6672 13.794 34.608 13.6926 34.5299 13.6065C34.4518 13.5205 34.3565 13.4517 34.2503 13.4047C34.144 13.3576 34.0291 13.3333 33.9129 13.3333H6.14738ZM34.1852 20H6.00183L7.58791 33.3331L32.8937 33.3333L34.1852 20ZM10.8329 24.1667C10.8329 23.2462 11.5791 22.5 12.4996 22.5H27.4996C28.4201 22.5 29.1663 23.2462 29.1663 24.1667C29.1663 25.0871 28.4201 25.8333 27.4996 25.8333H12.4996C11.5791 25.8333 10.8329 25.0871 10.8329 24.1667ZM12.4996 30C12.4996 29.0795 13.2458 28.3333 14.1662 28.3333H25.8329C26.7534 28.3333 27.4996 29.0795 27.4996 30C27.4996 30.9205 26.7534 31.6667 25.8329 31.6667H14.1662C13.2458 31.6667 12.4996 30.9205 12.4996 30Z" fill="#0B5C30"/>
<path fill-rule="evenodd" clip-rule="evenodd" d="M13.805 8.00943C15.1136 5.47959 17.2167 3.33325 19.9993 3.33325C22.782 3.33325 24.8851 5.47959 26.1937 8.00943C27.5458 10.6236 28.3327 14.1193 28.3327 17.8891C28.3327 18.0496 28.3309 18.2079 28.3283 18.3615C28.3129 19.2708 27.5713 19.9999 26.6618 19.9999H13.3368C12.4274 19.9999 11.6858 19.2708 11.6704 18.3615C11.6678 18.2079 11.666 18.0496 11.666 17.8891C11.666 14.1193 12.4529 10.6236 13.805 8.00943ZM15.031 16.6666H24.9677C24.8195 13.8252 24.1626 11.3381 23.2329 9.54083C22.1286 7.40567 20.8984 6.66659 19.9993 6.66659C19.1003 6.66659 17.8701 7.40567 16.7658 9.54083C15.8361 11.3381 15.1792 13.8252 15.031 16.6666Z" fill="#0B5C30"/>
</svg>
